<svg xmlns="http://www.w3.org/2000/svg" xmlns:xlink="http://www.w3.org/1999/xlink" width="500" zoomAndPan="magnify" viewBox="0 0 375 30.000001" height="40" preserveAspectRatio="xMidYMid meet" version="1.0"><defs><g/><clipPath id="8907f3fd74"><path d="M 34.710938 0.6875 L 66.578125 0.6875 L 66.578125 28.269531 L 34.710938 28.269531 Z M 34.710938 0.6875 " clip-rule="nonzero"/></clipPath></defs><g fill="#dfc13d" fill-opacity="0.4"><g transform="translate(74.951706, 27.219645)"><g><path d="M 11.828125 0 L 2.546875 0 C 2.234375 0 2.007812 -0.0664062 1.875 -0.203125 C 1.738281 -0.335938 1.671875 -0.5625 1.671875 -0.875 L 1.671875 -16.546875 C 1.671875 -16.847656 1.738281 -17.066406 1.875 -17.203125 C 2.007812 -17.347656 2.234375 -17.421875 2.546875 -17.421875 L 10.25 -17.421875 C 11.832031 -17.421875 13.003906 -17.113281 13.765625 -16.5 C 14.523438 -15.894531 14.90625 -14.96875 14.90625 -13.71875 L 14.90625 -12.546875 C 14.90625 -11.867188 14.785156 -11.316406 14.546875 -10.890625 C 14.316406 -10.460938 13.957031 -10.144531 13.46875 -9.9375 C 14.5 -9.84375 15.265625 -9.488281 15.765625 -8.875 C 16.265625 -8.257812 16.515625 -7.363281 16.515625 -6.1875 L 16.515625 -3.96875 C 16.515625 -2.613281 16.128906 -1.613281 15.359375 -0.96875 C 14.597656 -0.320312 13.421875 0 11.828125 0 Z M 7.109375 -13.296875 L 7.109375 -10.6875 L 9.171875 -10.6875 C 9.472656 -10.6875 9.703125 -10.765625 9.859375 -10.921875 C 10.015625 -11.085938 10.09375 -11.332031 10.09375 -11.65625 L 10.09375 -12.328125 C 10.09375 -12.648438 10.015625 -12.890625 9.859375 -13.046875 C 9.703125 -13.210938 9.472656 -13.296875 9.171875 -13.296875 Z M 7.109375 -6.96875 L 7.109375 -4.109375 L 10.25 -4.109375 C 10.5625 -4.109375 10.789062 -4.1875 10.9375 -4.34375 C 11.09375 -4.507812 11.171875 -4.753906 11.171875 -5.078125 L 11.171875 -6.015625 C 11.171875 -6.335938 11.09375 -6.578125 10.9375 -6.734375 C 10.789062 -6.890625 10.5625 -6.96875 10.25 -6.96875 Z M 7.109375 -6.96875 "/></g></g></g><g fill="#dfc13d" fill-opacity="0.4"><g transform="translate(92.489253, 27.219645)"><g><path d="M 7.984375 -12.328125 L 6.84375 -8.65625 L 10.640625 -8.65625 L 9.5 -12.328125 C 9.4375 -12.472656 9.367188 -12.578125 9.296875 -12.640625 C 9.222656 -12.710938 9.140625 -12.75 9.046875 -12.75 L 8.4375 -12.75 C 8.34375 -12.75 8.257812 -12.710938 8.1875 -12.640625 C 8.113281 -12.578125 8.046875 -12.472656 7.984375 -12.328125 Z M 6.609375 -0.875 C 6.609375 -0.5625 6.535156 -0.335938 6.390625 -0.203125 C 6.253906 -0.0664062 6.035156 0 5.734375 0 L 2.171875 0 C 1.867188 0 1.648438 -0.0664062 1.515625 -0.203125 C 1.378906 -0.335938 1.3125 -0.5625 1.3125 -0.875 L 1.3125 -7.25 C 1.3125 -7.738281 1.382812 -8.296875 1.53125 -8.921875 C 1.6875 -9.554688 1.925781 -10.289062 2.25 -11.125 L 4.359375 -16.609375 C 4.453125 -16.890625 4.597656 -17.09375 4.796875 -17.21875 C 5.003906 -17.351562 5.269531 -17.421875 5.59375 -17.421875 L 12.09375 -17.421875 C 12.394531 -17.421875 12.644531 -17.351562 12.84375 -17.21875 C 13.050781 -17.09375 13.203125 -16.890625 13.296875 -16.609375 L 15.40625 -11.125 C 15.726562 -10.289062 15.960938 -9.554688 16.109375 -8.921875 C 16.265625 -8.296875 16.34375 -7.738281 16.34375 -7.25 L 16.34375 -0.875 C 16.34375 -0.5625 16.273438 -0.335938 16.140625 -0.203125 C 16.003906 -0.0664062 15.785156 0 15.484375 0 L 11.828125 0 C 11.503906 0 11.265625 -0.0664062 11.109375 -0.203125 C 10.960938 -0.335938 10.890625 -0.5625 10.890625 -0.875 L 10.890625 -4.25 L 6.609375 -4.25 Z M 6.609375 -0.875 "/></g></g></g><g fill="#dfc13d" fill-opacity="0.4"><g transform="translate(110.147748, 27.219645)"><g><path d="M 10.5 0 L 6.578125 0 C 6.273438 0 6.050781 -0.0664062 5.90625 -0.203125 C 5.769531 -0.335938 5.703125 -0.5625 5.703125 -0.875 L 5.703125 -3.96875 L 2 -8.921875 C 1.632812 -9.421875 1.390625 -9.851562 1.265625 -10.21875 C 1.148438 -10.59375 1.09375 -11.15625 1.09375 -11.90625 L 1.09375 -16.546875 C 1.09375 -16.847656 1.160156 -17.066406 1.296875 -17.203125 C 1.429688 -17.347656 1.648438 -17.421875 1.953125 -17.421875 L 5.6875 -17.421875 C 5.988281 -17.421875 6.207031 -17.347656 6.34375 -17.203125 C 6.488281 -17.066406 6.5625 -16.847656 6.5625 -16.546875 L 6.5625 -12.578125 C 6.5625 -12.410156 6.566406 -12.238281 6.578125 -12.0625 C 6.597656 -11.882812 6.660156 -11.71875 6.765625 -11.5625 L 7.890625 -9.8125 C 7.960938 -9.675781 8.039062 -9.570312 8.125 -9.5 C 8.21875 -9.4375 8.332031 -9.40625 8.46875 -9.40625 L 8.703125 -9.40625 C 8.835938 -9.40625 8.945312 -9.4375 9.03125 -9.5 C 9.125 -9.570312 9.207031 -9.675781 9.28125 -9.8125 L 10.40625 -11.5625 C 10.507812 -11.71875 10.570312 -11.882812 10.59375 -12.0625 C 10.613281 -12.238281 10.625 -12.410156 10.625 -12.578125 L 10.625 -16.546875 C 10.625 -16.847656 10.691406 -17.066406 10.828125 -17.203125 C 10.960938 -17.347656 11.179688 -17.421875 11.484375 -17.421875 L 15.09375 -17.421875 C 15.394531 -17.421875 15.613281 -17.347656 15.75 -17.203125 C 15.894531 -17.066406 15.96875 -16.847656 15.96875 -16.546875 L 15.96875 -11.90625 C 15.96875 -11.15625 15.898438 -10.59375 15.765625 -10.21875 C 15.640625 -9.851562 15.398438 -9.421875 15.046875 -8.921875 L 11.375 -3.9375 L 11.375 -0.875 C 11.375 -0.5625 11.300781 -0.335938 11.15625 -0.203125 C 11.019531 -0.0664062 10.800781 0 10.5 0 Z M 10.5 0 "/></g></g></g><g fill="#dfc13d" fill-opacity="0.4"><g transform="translate(127.201498, 27.219645)"><g><path d="M 13.765625 0 L 2.546875 0 C 2.234375 0 2.007812 -0.0664062 1.875 -0.203125 C 1.738281 -0.335938 1.671875 -0.5625 1.671875 -0.875 L 1.671875 -16.546875 C 1.671875 -16.847656 1.738281 -17.066406 1.875 -17.203125 C 2.007812 -17.347656 2.234375 -17.421875 2.546875 -17.421875 L 13.765625 -17.421875 C 14.066406 -17.421875 14.285156 -17.347656 14.421875 -17.203125 C 14.566406 -17.066406 14.640625 -16.847656 14.640625 -16.546875 L 14.640625 -13.71875 C 14.640625 -13.40625 14.566406 -13.179688 14.421875 -13.046875 C 14.285156 -12.910156 14.066406 -12.84375 13.765625 -12.84375 L 7.09375 -12.84375 L 7.09375 -10.984375 L 11.796875 -10.984375 C 12.109375 -10.984375 12.332031 -10.910156 12.46875 -10.765625 C 12.601562 -10.628906 12.671875 -10.410156 12.671875 -10.109375 L 12.671875 -7.515625 C 12.671875 -7.210938 12.601562 -6.992188 12.46875 -6.859375 C 12.332031 -6.722656 12.109375 -6.65625 11.796875 -6.65625 L 7.09375 -6.65625 L 7.09375 -4.578125 L 13.765625 -4.578125 C 14.066406 -4.578125 14.285156 -4.503906 14.421875 -4.359375 C 14.566406 -4.222656 14.640625 -4.003906 14.640625 -3.703125 L 14.640625 -0.875 C 14.640625 -0.5625 14.566406 -0.335938 14.421875 -0.203125 C 14.285156 -0.0664062 14.066406 0 13.765625 0 Z M 13.765625 0 "/></g></g></g><g fill="#dfc13d" fill-opacity="0.4"><g transform="translate(143.021578, 27.219645)"><g><path d="M 7.140625 -13.0625 L 7.140625 -9.96875 L 8.953125 -9.96875 C 9.367188 -9.96875 9.648438 -10.078125 9.796875 -10.296875 C 9.941406 -10.515625 10.015625 -10.785156 10.015625 -11.109375 L 10.015625 -11.921875 C 10.015625 -12.242188 9.941406 -12.515625 9.796875 -12.734375 C 9.648438 -12.953125 9.367188 -13.0625 8.953125 -13.0625 Z M 6.265625 0 L 2.546875 0 C 2.234375 0 2.007812 -0.0664062 1.875 -0.203125 C 1.738281 -0.335938 1.671875 -0.5625 1.671875 -0.875 L 1.671875 -16.546875 C 1.671875 -16.847656 1.738281 -17.066406 1.875 -17.203125 C 2.007812 -17.347656 2.234375 -17.421875 2.546875 -17.421875 L 10.59375 -17.421875 C 12.394531 -17.421875 13.640625 -17.046875 14.328125 -16.296875 C 15.015625 -15.546875 15.359375 -14.570312 15.359375 -13.375 L 15.359375 -12.265625 C 15.359375 -11.585938 15.253906 -11.007812 15.046875 -10.53125 C 14.847656 -10.050781 14.5 -9.707031 14 -9.5 C 14.875 -9.40625 15.582031 -9.050781 16.125 -8.4375 C 16.664062 -7.820312 16.9375 -7.007812 16.9375 -6 L 16.9375 -0.875 C 16.9375 -0.5625 16.863281 -0.335938 16.71875 -0.203125 C 16.582031 -0.0664062 16.363281 0 16.0625 0 L 12.3125 0 C 12.007812 0 11.785156 -0.0664062 11.640625 -0.203125 C 11.503906 -0.335938 11.4375 -0.5625 11.4375 -0.875 L 11.4375 -4.578125 C 11.4375 -4.929688 11.367188 -5.191406 11.234375 -5.359375 C 11.097656 -5.523438 10.859375 -5.609375 10.515625 -5.609375 L 7.140625 -5.609375 L 7.140625 -0.875 C 7.140625 -0.5625 7.066406 -0.335938 6.921875 -0.203125 C 6.785156 -0.0664062 6.566406 0 6.265625 0 Z M 6.265625 0 "/></g></g></g><g fill="#dfc13d" fill-opacity="0.4"><g transform="translate(160.994535, 27.219645)"><g/></g></g><g fill="#dfc13d" fill-opacity="0.4"><g transform="translate(166.437219, 27.219645)"><g><path d="M 9.890625 0 L 5.96875 0 C 5.664062 0 5.445312 -0.0664062 5.3125 -0.203125 C 5.175781 -0.335938 5.109375 -0.5625 5.109375 -0.875 L 5.109375 -12.75 L 1.546875 -12.75 C 1.242188 -12.75 1.019531 -12.816406 0.875 -12.953125 C 0.738281 -13.085938 0.671875 -13.3125 0.671875 -13.625 L 0.671875 -16.546875 C 0.671875 -16.847656 0.738281 -17.066406 0.875 -17.203125 C 1.019531 -17.347656 1.242188 -17.421875 1.546875 -17.421875 L 14.3125 -17.421875 C 14.625 -17.421875 14.847656 -17.347656 14.984375 -17.203125 C 15.117188 -17.066406 15.1875 -16.847656 15.1875 -16.546875 L 15.1875 -13.625 C 15.1875 -13.3125 15.117188 -13.085938 14.984375 -12.953125 C 14.847656 -12.816406 14.625 -12.75 14.3125 -12.75 L 10.765625 -12.75 L 10.765625 -0.875 C 10.765625 -0.5625 10.695312 -0.335938 10.5625 -0.203125 C 10.425781 -0.0664062 10.203125 0 9.890625 0 Z M 9.890625 0 "/></g></g></g><g fill="#dfc13d" fill-opacity="0.4"><g transform="translate(182.305674, 27.219645)"><g><path d="M 2.15625 0 C 1.84375 0 1.617188 -0.0664062 1.484375 -0.203125 C 1.347656 -0.335938 1.28125 -0.5625 1.28125 -0.875 L 1.28125 -3.75 C 1.28125 -4.050781 1.347656 -4.269531 1.484375 -4.40625 C 1.617188 -4.550781 1.84375 -4.625 2.15625 -4.625 L 4.546875 -4.625 L 4.546875 -12.75 L 2.15625 -12.75 C 1.84375 -12.75 1.617188 -12.816406 1.484375 -12.953125 C 1.347656 -13.085938 1.28125 -13.3125 1.28125 -13.625 L 1.28125 -16.546875 C 1.28125 -16.847656 1.347656 -17.066406 1.484375 -17.203125 C 1.617188 -17.347656 1.84375 -17.421875 2.15625 -17.421875 L 12.453125 -17.421875 C 12.765625 -17.421875 12.988281 -17.347656 13.125 -17.203125 C 13.257812 -17.066406 13.328125 -16.847656 13.328125 -16.546875 L 13.328125 -13.625 C 13.328125 -13.3125 13.257812 -13.085938 13.125 -12.953125 C 12.988281 -12.816406 12.765625 -12.75 12.453125 -12.75 L 10.109375 -12.75 L 10.109375 -4.625 L 12.453125 -4.625 C 12.765625 -4.625 12.988281 -4.550781 13.125 -4.40625 C 13.257812 -4.269531 13.328125 -4.050781 13.328125 -3.75 L 13.328125 -0.875 C 13.328125 -0.5625 13.257812 -0.335938 13.125 -0.203125 C 12.988281 -0.0664062 12.765625 0 12.453125 0 Z M 2.15625 0 "/></g></g></g><g fill="#dfc13d" fill-opacity="0.4"><g transform="translate(196.940449, 27.219645)"><g><path d="M 13.25 0 L 7.359375 0 C 5.335938 0 3.835938 -0.398438 2.859375 -1.203125 C 1.890625 -2.015625 1.40625 -3.257812 1.40625 -4.9375 L 1.40625 -12.453125 C 1.40625 -14.128906 1.890625 -15.375 2.859375 -16.1875 C 3.835938 -17.007812 5.335938 -17.421875 7.359375 -17.421875 L 13.25 -17.421875 C 13.5625 -17.421875 13.785156 -17.347656 13.921875 -17.203125 C 14.054688 -17.066406 14.125 -16.847656 14.125 -16.546875 L 14.125 -13.625 C 14.125 -13.3125 14.054688 -13.085938 13.921875 -12.953125 C 13.785156 -12.816406 13.5625 -12.75 13.25 -12.75 L 8.390625 -12.75 C 7.890625 -12.75 7.519531 -12.644531 7.28125 -12.4375 C 7.039062 -12.238281 6.921875 -11.9375 6.921875 -11.53125 L 6.921875 -5.78125 C 6.921875 -5.375 7.039062 -5.078125 7.28125 -4.890625 C 7.519531 -4.710938 7.890625 -4.625 8.390625 -4.625 L 13.25 -4.625 C 13.5625 -4.625 13.785156 -4.550781 13.921875 -4.40625 C 14.054688 -4.269531 14.125 -4.050781 14.125 -3.75 L 14.125 -0.875 C 14.125 -0.5625 14.054688 -0.335938 13.921875 -0.203125 C 13.785156 -0.0664062 13.5625 0 13.25 0 Z M 13.25 0 "/></g></g></g><g fill="#dfc13d" fill-opacity="0.4"><g transform="translate(212.131594, 27.219645)"><g><path d="M 6.28125 0 L 2.546875 0 C 2.234375 0 2.007812 -0.0664062 1.875 -0.203125 C 1.738281 -0.335938 1.671875 -0.5625 1.671875 -0.875 L 1.671875 -16.546875 C 1.671875 -16.847656 1.738281 -17.066406 1.875 -17.203125 C 2.007812 -17.347656 2.234375 -17.421875 2.546875 -17.421875 L 6.28125 -17.421875 C 6.59375 -17.421875 6.816406 -17.347656 6.953125 -17.203125 C 7.085938 -17.066406 7.15625 -16.847656 7.15625 -16.546875 L 7.15625 -10.984375 L 8.125 -10.984375 L 10.625 -16.609375 C 10.726562 -16.898438 10.878906 -17.109375 11.078125 -17.234375 C 11.273438 -17.359375 11.523438 -17.421875 11.828125 -17.421875 L 15.546875 -17.421875 C 15.828125 -17.421875 16.015625 -17.347656 16.109375 -17.203125 C 16.203125 -17.066406 16.191406 -16.867188 16.078125 -16.609375 L 13.625 -10.984375 C 14.519531 -10.929688 15.238281 -10.609375 15.78125 -10.015625 C 16.320312 -9.429688 16.59375 -8.65625 16.59375 -7.6875 L 16.59375 -0.875 C 16.59375 -0.5625 16.523438 -0.335938 16.390625 -0.203125 C 16.253906 -0.0664062 16.03125 0 15.71875 0 L 12 0 C 11.6875 0 11.460938 -0.0664062 11.328125 -0.203125 C 11.191406 -0.335938 11.125 -0.5625 11.125 -0.875 L 11.125 -5.59375 C 11.125 -5.84375 11.054688 -6.039062 10.921875 -6.1875 C 10.796875 -6.332031 10.609375 -6.40625 10.359375 -6.40625 L 7.15625 -6.40625 L 7.15625 -0.875 C 7.15625 -0.5625 7.085938 -0.335938 6.953125 -0.203125 C 6.816406 -0.0664062 6.59375 0 6.28125 0 Z M 6.28125 0 "/></g></g></g><g fill="#dfc13d" fill-opacity="0.4"><g transform="translate(230.177125, 27.219645)"><g><path d="M 13.765625 0 L 2.546875 0 C 2.234375 0 2.007812 -0.0664062 1.875 -0.203125 C 1.738281 -0.335938 1.671875 -0.5625 1.671875 -0.875 L 1.671875 -16.546875 C 1.671875 -16.847656 1.738281 -17.066406 1.875 -17.203125 C 2.007812 -17.347656 2.234375 -17.421875 2.546875 -17.421875 L 13.765625 -17.421875 C 14.066406 -17.421875 14.285156 -17.347656 14.421875 -17.203125 C 14.566406 -17.066406 14.640625 -16.847656 14.640625 -16.546875 L 14.640625 -13.71875 C 14.640625 -13.40625 14.566406 -13.179688 14.421875 -13.046875 C 14.285156 -12.910156 14.066406 -12.84375 13.765625 -12.84375 L 7.09375 -12.84375 L 7.09375 -10.984375 L 11.796875 -10.984375 C 12.109375 -10.984375 12.332031 -10.910156 12.46875 -10.765625 C 12.601562 -10.628906 12.671875 -10.410156 12.671875 -10.109375 L 12.671875 -7.515625 C 12.671875 -7.210938 12.601562 -6.992188 12.46875 -6.859375 C 12.332031 -6.722656 12.109375 -6.65625 11.796875 -6.65625 L 7.09375 -6.65625 L 7.09375 -4.578125 L 13.765625 -4.578125 C 14.066406 -4.578125 14.285156 -4.503906 14.421875 -4.359375 C 14.566406 -4.222656 14.640625 -4.003906 14.640625 -3.703125 L 14.640625 -0.875 C 14.640625 -0.5625 14.566406 -0.335938 14.421875 -0.203125 C 14.285156 -0.0664062 14.066406 0 13.765625 0 Z M 13.765625 0 "/></g></g></g><g fill="#dfc13d" fill-opacity="0.4"><g transform="translate(245.997205, 27.219645)"><g><path d="M 9.890625 0 L 5.96875 0 C 5.664062 0 5.445312 -0.0664062 5.3125 -0.203125 C 5.175781 -0.335938 5.109375 -0.5625 5.109375 -0.875 L 5.109375 -12.75 L 1.546875 -12.75 C 1.242188 -12.75 1.019531 -12.816406 0.875 -12.953125 C 0.738281 -13.085938 0.671875 -13.3125 0.671875 -13.625 L 0.671875 -16.546875 C 0.671875 -16.847656 0.738281 -17.066406 0.875 -17.203125 C 1.019531 -17.347656 1.242188 -17.421875 1.546875 -17.421875 L 14.3125 -17.421875 C 14.625 -17.421875 14.847656 -17.347656 14.984375 -17.203125 C 15.117188 -17.066406 15.1875 -16.847656 15.1875 -16.546875 L 15.1875 -13.625 C 15.1875 -13.3125 15.117188 -13.085938 14.984375 -12.953125 C 14.847656 -12.816406 14.625 -12.75 14.3125 -12.75 L 10.765625 -12.75 L 10.765625 -0.875 C 10.765625 -0.5625 10.695312 -0.335938 10.5625 -0.203125 C 10.425781 -0.0664062 10.203125 0 9.890625 0 Z M 9.890625 0 "/></g></g></g><g fill="#dfc13d" fill-opacity="1"><g transform="translate(74.534917, 25.766125)"><g><path d="M 11.828125 0 L 2.546875 0 C 2.234375 0 2.007812 -0.0664062 1.875 -0.203125 C 1.738281 -0.335938 1.671875 -0.5625 1.671875 -0.875 L 1.671875 -16.546875 C 1.671875 -16.847656 1.738281 -17.066406 1.875 -17.203125 C 2.007812 -17.347656 2.234375 -17.421875 2.546875 -17.421875 L 10.25 -17.421875 C 11.832031 -17.421875 13.003906 -17.113281 13.765625 -16.5 C 14.523438 -15.894531 14.90625 -14.96875 14.90625 -13.71875 L 14.90625 -12.546875 C 14.90625 -11.867188 14.785156 -11.316406 14.546875 -10.890625 C 14.316406 -10.460938 13.957031 -10.144531 13.46875 -9.9375 C 14.5 -9.84375 15.265625 -9.488281 15.765625 -8.875 C 16.265625 -8.257812 16.515625 -7.363281 16.515625 -6.1875 L 16.515625 -3.96875 C 16.515625 -2.613281 16.128906 -1.613281 15.359375 -0.96875 C 14.597656 -0.320312 13.421875 0 11.828125 0 Z M 7.109375 -13.296875 L 7.109375 -10.6875 L 9.171875 -10.6875 C 9.472656 -10.6875 9.703125 -10.765625 9.859375 -10.921875 C 10.015625 -11.085938 10.09375 -11.332031 10.09375 -11.65625 L 10.09375 -12.328125 C 10.09375 -12.648438 10.015625 -12.890625 9.859375 -13.046875 C 9.703125 -13.210938 9.472656 -13.296875 9.171875 -13.296875 Z M 7.109375 -6.96875 L 7.109375 -4.109375 L 10.25 -4.109375 C 10.5625 -4.109375 10.789062 -4.1875 10.9375 -4.34375 C 11.09375 -4.507812 11.171875 -4.753906 11.171875 -5.078125 L 11.171875 -6.015625 C 11.171875 -6.335938 11.09375 -6.578125 10.9375 -6.734375 C 10.789062 -6.890625 10.5625 -6.96875 10.25 -6.96875 Z M 7.109375 -6.96875 "/></g></g></g><g fill="#dfc13d" fill-opacity="1"><g transform="translate(92.072463, 25.766125)"><g><path d="M 7.984375 -12.328125 L 6.84375 -8.65625 L 10.640625 -8.65625 L 9.5 -12.328125 C 9.4375 -12.472656 9.367188 -12.578125 9.296875 -12.640625 C 9.222656 -12.710938 9.140625 -12.75 9.046875 -12.75 L 8.4375 -12.75 C 8.34375 -12.75 8.257812 -12.710938 8.1875 -12.640625 C 8.113281 -12.578125 8.046875 -12.472656 7.984375 -12.328125 Z M 6.609375 -0.875 C 6.609375 -0.5625 6.535156 -0.335938 6.390625 -0.203125 C 6.253906 -0.0664062 6.035156 0 5.734375 0 L 2.171875 0 C 1.867188 0 1.648438 -0.0664062 1.515625 -0.203125 C 1.378906 -0.335938 1.3125 -0.5625 1.3125 -0.875 L 1.3125 -7.25 C 1.3125 -7.738281 1.382812 -8.296875 1.53125 -8.921875 C 1.6875 -9.554688 1.925781 -10.289062 2.25 -11.125 L 4.359375 -16.609375 C 4.453125 -16.890625 4.597656 -17.09375 4.796875 -17.21875 C 5.003906 -17.351562 5.269531 -17.421875 5.59375 -17.421875 L 12.09375 -17.421875 C 12.394531 -17.421875 12.644531 -17.351562 12.84375 -17.21875 C 13.050781 -17.09375 13.203125 -16.890625 13.296875 -16.609375 L 15.40625 -11.125 C 15.726562 -10.289062 15.960938 -9.554688 16.109375 -8.921875 C 16.265625 -8.296875 16.34375 -7.738281 16.34375 -7.25 L 16.34375 -0.875 C 16.34375 -0.5625 16.273438 -0.335938 16.140625 -0.203125 C 16.003906 -0.0664062 15.785156 0 15.484375 0 L 11.828125 0 C 11.503906 0 11.265625 -0.0664062 11.109375 -0.203125 C 10.960938 -0.335938 10.890625 -0.5625 10.890625 -0.875 L 10.890625 -4.25 L 6.609375 -4.25 Z M 6.609375 -0.875 "/></g></g></g><g fill="#dfc13d" fill-opacity="1"><g transform="translate(109.730959, 25.766125)"><g><path d="M 10.5 0 L 6.578125 0 C 6.273438 0 6.050781 -0.0664062 5.90625 -0.203125 C 5.769531 -0.335938 5.703125 -0.5625 5.703125 -0.875 L 5.703125 -3.96875 L 2 -8.921875 C 1.632812 -9.421875 1.390625 -9.851562 1.265625 -10.21875 C 1.148438 -10.59375 1.09375 -11.15625 1.09375 -11.90625 L 1.09375 -16.546875 C 1.09375 -16.847656 1.160156 -17.066406 1.296875 -17.203125 C 1.429688 -17.347656 1.648438 -17.421875 1.953125 -17.421875 L 5.6875 -17.421875 C 5.988281 -17.421875 6.207031 -17.347656 6.34375 -17.203125 C 6.488281 -17.066406 6.5625 -16.847656 6.5625 -16.546875 L 6.5625 -12.578125 C 6.5625 -12.410156 6.566406 -12.238281 6.578125 -12.0625 C 6.597656 -11.882812 6.660156 -11.71875 6.765625 -11.5625 L 7.890625 -9.8125 C 7.960938 -9.675781 8.039062 -9.570312 8.125 -9.5 C 8.21875 -9.4375 8.332031 -9.40625 8.46875 -9.40625 L 8.703125 -9.40625 C 8.835938 -9.40625 8.945312 -9.4375 9.03125 -9.5 C 9.125 -9.570312 9.207031 -9.675781 9.28125 -9.8125 L 10.40625 -11.5625 C 10.507812 -11.71875 10.570312 -11.882812 10.59375 -12.0625 C 10.613281 -12.238281 10.625 -12.410156 10.625 -12.578125 L 10.625 -16.546875 C 10.625 -16.847656 10.691406 -17.066406 10.828125 -17.203125 C 10.960938 -17.347656 11.179688 -17.421875 11.484375 -17.421875 L 15.09375 -17.421875 C 15.394531 -17.421875 15.613281 -17.347656 15.75 -17.203125 C 15.894531 -17.066406 15.96875 -16.847656 15.96875 -16.546875 L 15.96875 -11.90625 C 15.96875 -11.15625 15.898438 -10.59375 15.765625 -10.21875 C 15.640625 -9.851562 15.398438 -9.421875 15.046875 -8.921875 L 11.375 -3.9375 L 11.375 -0.875 C 11.375 -0.5625 11.300781 -0.335938 11.15625 -0.203125 C 11.019531 -0.0664062 10.800781 0 10.5 0 Z M 10.5 0 "/></g></g></g><g fill="#dfc13d" fill-opacity="1"><g transform="translate(126.784708, 25.766125)"><g><path d="M 13.765625 0 L 2.546875 0 C 2.234375 0 2.007812 -0.0664062 1.875 -0.203125 C 1.738281 -0.335938 1.671875 -0.5625 1.671875 -0.875 L 1.671875 -16.546875 C 1.671875 -16.847656 1.738281 -17.066406 1.875 -17.203125 C 2.007812 -17.347656 2.234375 -17.421875 2.546875 -17.421875 L 13.765625 -17.421875 C 14.066406 -17.421875 14.285156 -17.347656 14.421875 -17.203125 C 14.566406 -17.066406 14.640625 -16.847656 14.640625 -16.546875 L 14.640625 -13.71875 C 14.640625 -13.40625 14.566406 -13.179688 14.421875 -13.046875 C 14.285156 -12.910156 14.066406 -12.84375 13.765625 -12.84375 L 7.09375 -12.84375 L 7.09375 -10.984375 L 11.796875 -10.984375 C 12.109375 -10.984375 12.332031 -10.910156 12.46875 -10.765625 C 12.601562 -10.628906 12.671875 -10.410156 12.671875 -10.109375 L 12.671875 -7.515625 C 12.671875 -7.210938 12.601562 -6.992188 12.46875 -6.859375 C 12.332031 -6.722656 12.109375 -6.65625 11.796875 -6.65625 L 7.09375 -6.65625 L 7.09375 -4.578125 L 13.765625 -4.578125 C 14.066406 -4.578125 14.285156 -4.503906 14.421875 -4.359375 C 14.566406 -4.222656 14.640625 -4.003906 14.640625 -3.703125 L 14.640625 -0.875 C 14.640625 -0.5625 14.566406 -0.335938 14.421875 -0.203125 C 14.285156 -0.0664062 14.066406 0 13.765625 0 Z M 13.765625 0 "/></g></g></g><g fill="#dfc13d" fill-opacity="1"><g transform="translate(142.604788, 25.766125)"><g><path d="M 7.140625 -13.0625 L 7.140625 -9.96875 L 8.953125 -9.96875 C 9.367188 -9.96875 9.648438 -10.078125 9.796875 -10.296875 C 9.941406 -10.515625 10.015625 -10.785156 10.015625 -11.109375 L 10.015625 -11.921875 C 10.015625 -12.242188 9.941406 -12.515625 9.796875 -12.734375 C 9.648438 -12.953125 9.367188 -13.0625 8.953125 -13.0625 Z M 6.265625 0 L 2.546875 0 C 2.234375 0 2.007812 -0.0664062 1.875 -0.203125 C 1.738281 -0.335938 1.671875 -0.5625 1.671875 -0.875 L 1.671875 -16.546875 C 1.671875 -16.847656 1.738281 -17.066406 1.875 -17.203125 C 2.007812 -17.347656 2.234375 -17.421875 2.546875 -17.421875 L 10.59375 -17.421875 C 12.394531 -17.421875 13.640625 -17.046875 14.328125 -16.296875 C 15.015625 -15.546875 15.359375 -14.570312 15.359375 -13.375 L 15.359375 -12.265625 C 15.359375 -11.585938 15.253906 -11.007812 15.046875 -10.53125 C 14.847656 -10.050781 14.5 -9.707031 14 -9.5 C 14.875 -9.40625 15.582031 -9.050781 16.125 -8.4375 C 16.664062 -7.820312 16.9375 -7.007812 16.9375 -6 L 16.9375 -0.875 C 16.9375 -0.5625 16.863281 -0.335938 16.71875 -0.203125 C 16.582031 -0.0664062 16.363281 0 16.0625 0 L 12.3125 0 C 12.007812 0 11.785156 -0.0664062 11.640625 -0.203125 C 11.503906 -0.335938 11.4375 -0.5625 11.4375 -0.875 L 11.4375 -4.578125 C 11.4375 -4.929688 11.367188 -5.191406 11.234375 -5.359375 C 11.097656 -5.523438 10.859375 -5.609375 10.515625 -5.609375 L 7.140625 -5.609375 L 7.140625 -0.875 C 7.140625 -0.5625 7.066406 -0.335938 6.921875 -0.203125 C 6.785156 -0.0664062 6.566406 0 6.265625 0 Z M 6.265625 0 "/></g></g></g><g fill="#dfc13d" fill-opacity="1"><g transform="translate(160.577745, 25.766125)"><g/></g></g><g fill="#dfc13d" fill-opacity="1"><g transform="translate(166.02043, 25.766125)"><g><path d="M 9.890625 0 L 5.96875 0 C 5.664062 0 5.445312 -0.0664062 5.3125 -0.203125 C 5.175781 -0.335938 5.109375 -0.5625 5.109375 -0.875 L 5.109375 -12.75 L 1.546875 -12.75 C 1.242188 -12.75 1.019531 -12.816406 0.875 -12.953125 C 0.738281 -13.085938 0.671875 -13.3125 0.671875 -13.625 L 0.671875 -16.546875 C 0.671875 -16.847656 0.738281 -17.066406 0.875 -17.203125 C 1.019531 -17.347656 1.242188 -17.421875 1.546875 -17.421875 L 14.3125 -17.421875 C 14.625 -17.421875 14.847656 -17.347656 14.984375 -17.203125 C 15.117188 -17.066406 15.1875 -16.847656 15.1875 -16.546875 L 15.1875 -13.625 C 15.1875 -13.3125 15.117188 -13.085938 14.984375 -12.953125 C 14.847656 -12.816406 14.625 -12.75 14.3125 -12.75 L 10.765625 -12.75 L 10.765625 -0.875 C 10.765625 -0.5625 10.695312 -0.335938 10.5625 -0.203125 C 10.425781 -0.0664062 10.203125 0 9.890625 0 Z M 9.890625 0 "/></g></g></g><g fill="#dfc13d" fill-opacity="1"><g transform="translate(181.888885, 25.766125)"><g><path d="M 2.15625 0 C 1.84375 0 1.617188 -0.0664062 1.484375 -0.203125 C 1.347656 -0.335938 1.28125 -0.5625 1.28125 -0.875 L 1.28125 -3.75 C 1.28125 -4.050781 1.347656 -4.269531 1.484375 -4.40625 C 1.617188 -4.550781 1.84375 -4.625 2.15625 -4.625 L 4.546875 -4.625 L 4.546875 -12.75 L 2.15625 -12.75 C 1.84375 -12.75 1.617188 -12.816406 1.484375 -12.953125 C 1.347656 -13.085938 1.28125 -13.3125 1.28125 -13.625 L 1.28125 -16.546875 C 1.28125 -16.847656 1.347656 -17.066406 1.484375 -17.203125 C 1.617188 -17.347656 1.84375 -17.421875 2.15625 -17.421875 L 12.453125 -17.421875 C 12.765625 -17.421875 12.988281 -17.347656 13.125 -17.203125 C 13.257812 -17.066406 13.328125 -16.847656 13.328125 -16.546875 L 13.328125 -13.625 C 13.328125 -13.3125 13.257812 -13.085938 13.125 -12.953125 C 12.988281 -12.816406 12.765625 -12.75 12.453125 -12.75 L 10.109375 -12.75 L 10.109375 -4.625 L 12.453125 -4.625 C 12.765625 -4.625 12.988281 -4.550781 13.125 -4.40625 C 13.257812 -4.269531 13.328125 -4.050781 13.328125 -3.75 L 13.328125 -0.875 C 13.328125 -0.5625 13.257812 -0.335938 13.125 -0.203125 C 12.988281 -0.0664062 12.765625 0 12.453125 0 Z M 2.15625 0 "/></g></g></g><g fill="#dfc13d" fill-opacity="1"><g transform="translate(196.523659, 25.766125)"><g><path d="M 13.25 0 L 7.359375 0 C 5.335938 0 3.835938 -0.398438 2.859375 -1.203125 C 1.890625 -2.015625 1.40625 -3.257812 1.40625 -4.9375 L 1.40625 -12.453125 C 1.40625 -14.128906 1.890625 -15.375 2.859375 -16.1875 C 3.835938 -17.007812 5.335938 -17.421875 7.359375 -17.421875 L 13.25 -17.421875 C 13.5625 -17.421875 13.785156 -17.347656 13.921875 -17.203125 C 14.054688 -17.066406 14.125 -16.847656 14.125 -16.546875 L 14.125 -13.625 C 14.125 -13.3125 14.054688 -13.085938 13.921875 -12.953125 C 13.785156 -12.816406 13.5625 -12.75 13.25 -12.75 L 8.390625 -12.75 C 7.890625 -12.75 7.519531 -12.644531 7.28125 -12.4375 C 7.039062 -12.238281 6.921875 -11.9375 6.921875 -11.53125 L 6.921875 -5.78125 C 6.921875 -5.375 7.039062 -5.078125 7.28125 -4.890625 C 7.519531 -4.710938 7.890625 -4.625 8.390625 -4.625 L 13.25 -4.625 C 13.5625 -4.625 13.785156 -4.550781 13.921875 -4.40625 C 14.054688 -4.269531 14.125 -4.050781 14.125 -3.75 L 14.125 -0.875 C 14.125 -0.5625 14.054688 -0.335938 13.921875 -0.203125 C 13.785156 -0.0664062 13.5625 0 13.25 0 Z M 13.25 0 "/></g></g></g><g fill="#dfc13d" fill-opacity="1"><g transform="translate(211.714805, 25.766125)"><g><path d="M 6.28125 0 L 2.546875 0 C 2.234375 0 2.007812 -0.0664062 1.875 -0.203125 C 1.738281 -0.335938 1.671875 -0.5625 1.671875 -0.875 L 1.671875 -16.546875 C 1.671875 -16.847656 1.738281 -17.066406 1.875 -17.203125 C 2.007812 -17.347656 2.234375 -17.421875 2.546875 -17.421875 L 6.28125 -17.421875 C 6.59375 -17.421875 6.816406 -17.347656 6.953125 -17.203125 C 7.085938 -17.066406 7.15625 -16.847656 7.15625 -16.546875 L 7.15625 -10.984375 L 8.125 -10.984375 L 10.625 -16.609375 C 10.726562 -16.898438 10.878906 -17.109375 11.078125 -17.234375 C 11.273438 -17.359375 11.523438 -17.421875 11.828125 -17.421875 L 15.546875 -17.421875 C 15.828125 -17.421875 16.015625 -17.347656 16.109375 -17.203125 C 16.203125 -17.066406 16.191406 -16.867188 16.078125 -16.609375 L 13.625 -10.984375 C 14.519531 -10.929688 15.238281 -10.609375 15.78125 -10.015625 C 16.320312 -9.429688 16.59375 -8.65625 16.59375 -7.6875 L 16.59375 -0.875 C 16.59375 -0.5625 16.523438 -0.335938 16.390625 -0.203125 C 16.253906 -0.0664062 16.03125 0 15.71875 0 L 12 0 C 11.6875 0 11.460938 -0.0664062 11.328125 -0.203125 C 11.191406 -0.335938 11.125 -0.5625 11.125 -0.875 L 11.125 -5.59375 C 11.125 -5.84375 11.054688 -6.039062 10.921875 -6.1875 C 10.796875 -6.332031 10.609375 -6.40625 10.359375 -6.40625 L 7.15625 -6.40625 L 7.15625 -0.875 C 7.15625 -0.5625 7.085938 -0.335938 6.953125 -0.203125 C 6.816406 -0.0664062 6.59375 0 6.28125 0 Z M 6.28125 0 "/></g></g></g><g fill="#dfc13d" fill-opacity="1"><g transform="translate(229.760336, 25.766125)"><g><path d="M 13.765625 0 L 2.546875 0 C 2.234375 0 2.007812 -0.0664062 1.875 -0.203125 C 1.738281 -0.335938 1.671875 -0.5625 1.671875 -0.875 L 1.671875 -16.546875 C 1.671875 -16.847656 1.738281 -17.066406 1.875 -17.203125 C 2.007812 -17.347656 2.234375 -17.421875 2.546875 -17.421875 L 13.765625 -17.421875 C 14.066406 -17.421875 14.285156 -17.347656 14.421875 -17.203125 C 14.566406 -17.066406 14.640625 -16.847656 14.640625 -16.546875 L 14.640625 -13.71875 C 14.640625 -13.40625 14.566406 -13.179688 14.421875 -13.046875 C 14.285156 -12.910156 14.066406 -12.84375 13.765625 -12.84375 L 7.09375 -12.84375 L 7.09375 -10.984375 L 11.796875 -10.984375 C 12.109375 -10.984375 12.332031 -10.910156 12.46875 -10.765625 C 12.601562 -10.628906 12.671875 -10.410156 12.671875 -10.109375 L 12.671875 -7.515625 C 12.671875 -7.210938 12.601562 -6.992188 12.46875 -6.859375 C 12.332031 -6.722656 12.109375 -6.65625 11.796875 -6.65625 L 7.09375 -6.65625 L 7.09375 -4.578125 L 13.765625 -4.578125 C 14.066406 -4.578125 14.285156 -4.503906 14.421875 -4.359375 C 14.566406 -4.222656 14.640625 -4.003906 14.640625 -3.703125 L 14.640625 -0.875 C 14.640625 -0.5625 14.566406 -0.335938 14.421875 -0.203125 C 14.285156 -0.0664062 14.066406 0 13.765625 0 Z M 13.765625 0 "/></g></g></g><g fill="#dfc13d" fill-opacity="1"><g transform="translate(245.580416, 25.766125)"><g><path d="M 9.890625 0 L 5.96875 0 C 5.664062 0 5.445312 -0.0664062 5.3125 -0.203125 C 5.175781 -0.335938 5.109375 -0.5625 5.109375 -0.875 L 5.109375 -12.75 L 1.546875 -12.75 C 1.242188 -12.75 1.019531 -12.816406 0.875 -12.953125 C 0.738281 -13.085938 0.671875 -13.3125 0.671875 -13.625 L 0.671875 -16.546875 C 0.671875 -16.847656 0.738281 -17.066406 0.875 -17.203125 C 1.019531 -17.347656 1.242188 -17.421875 1.546875 -17.421875 L 14.3125 -17.421875 C 14.625 -17.421875 14.847656 -17.347656 14.984375 -17.203125 C 15.117188 -17.066406 15.1875 -16.847656 15.1875 -16.546875 L 15.1875 -13.625 C 15.1875 -13.3125 15.117188 -13.085938 14.984375 -12.953125 C 14.847656 -12.816406 14.625 -12.75 14.3125 -12.75 L 10.765625 -12.75 L 10.765625 -0.875 C 10.765625 -0.5625 10.695312 -0.335938 10.5625 -0.203125 C 10.425781 -0.0664062 10.203125 0 9.890625 0 Z M 9.890625 0 "/></g></g></g><path fill="#dfc13d" d="M 52.859375 11.097656 L 53.660156 10.539062 L 55.929688 13.867188 L 56.78125 13.273438 L 54.511719 9.945312 L 55.3125 9.386719 L 54.757812 8.589844 L 52.316406 10.300781 L 52.859375 11.097656 " fill-opacity="1" fill-rule="nonzero"/><path fill="#dfc13d" d="M 52.382812 16.351562 L 49.578125 14.878906 L 49.375 12.359375 L 48.4375 13.015625 L 48.628906 14.535156 L 48.734375 15.136719 L 47.660156 13.566406 L 46.839844 14.136719 L 49.664062 18.246094 L 50.472656 17.675781 L 49.664062 16.492188 L 49.632812 15.964844 L 51.441406 17 L 52.382812 16.351562 " fill-opacity="1" fill-rule="nonzero"/><path fill="#dfc13d" d="M 42.351562 17.269531 L 45.175781 21.378906 L 46.007812 20.808594 L 43.183594 16.6875 L 42.351562 17.269531 " fill-opacity="1" fill-rule="nonzero"/><path fill="#dfc13d" d="M 56.089844 6.597656 C 56.175781 6.71875 56.335938 6.75 56.464844 6.664062 C 56.582031 6.578125 56.613281 6.40625 56.527344 6.285156 C 56.421875 6.125 56.3125 5.976562 56.207031 5.8125 C 56.121094 5.695312 55.953125 5.664062 55.835938 5.75 C 55.707031 5.835938 55.683594 5.996094 55.761719 6.125 C 55.878906 6.277344 55.984375 6.4375 56.089844 6.597656 " fill-opacity="1" fill-rule="nonzero"/><path fill="#dfc13d" d="M 47.914062 19.570312 C 48.746094 18.988281 48.894531 18.203125 48.320312 17.320312 L 47.488281 17.902344 C 47.722656 18.28125 47.679688 18.539062 47.359375 18.765625 C 47.105469 18.9375 46.847656 18.871094 46.605469 18.515625 L 45.507812 16.921875 C 45.261719 16.558594 45.292969 16.289062 45.550781 16.117188 C 45.859375 15.890625 46.101562 15.945312 46.378906 16.308594 L 47.210938 15.726562 C 46.582031 14.878906 45.816406 14.726562 44.996094 15.296875 C 44.195312 15.855469 44.054688 16.652344 44.652344 17.527344 L 45.742188 19.121094 C 46.335938 19.992188 47.125 20.132812 47.914062 19.570312 " fill-opacity="1" fill-rule="nonzero"/><path fill="#dfc13d" d="M 57.582031 6.75 L 59.714844 5.265625 L 59.414062 4.8125 L 57.273438 6.308594 L 57.582031 6.75 " fill-opacity="1" fill-rule="nonzero"/><path fill="#dfc13d" d="M 58.234375 7.707031 L 60.375 6.210938 L 60.066406 5.769531 L 57.921875 7.265625 L 58.234375 7.707031 " fill-opacity="1" fill-rule="nonzero"/><path fill="#dfc13d" d="M 60.34375 10.796875 L 62.484375 9.300781 L 62.1875 8.859375 L 60.042969 10.355469 L 60.34375 10.796875 " fill-opacity="1" fill-rule="nonzero"/><path fill="#dfc13d" d="M 54.84375 14.628906 L 54.300781 13.832031 L 52.96875 14.757812 L 52.339844 13.855469 L 53.5 13.035156 L 52.976562 12.273438 L 51.816406 13.089844 L 51.230469 12.230469 L 52.507812 11.347656 L 51.964844 10.550781 L 49.867188 12.015625 L 52.679688 16.136719 L 54.84375 14.628906 " fill-opacity="1" fill-rule="nonzero"/><path fill="#dfc13d" d="M 57.230469 7.320312 C 57.15625 7.203125 56.984375 7.167969 56.867188 7.253906 C 56.742188 7.34375 56.707031 7.503906 56.792969 7.632812 C 56.902344 7.785156 57.019531 7.945312 57.125 8.105469 C 57.210938 8.226562 57.371094 8.257812 57.496094 8.171875 C 57.613281 8.085938 57.648438 7.921875 57.5625 7.792969 C 57.453125 7.644531 57.347656 7.480469 57.230469 7.320312 " fill-opacity="1" fill-rule="nonzero"/><path fill="#dfc13d" d="M 59.097656 4.347656 L 58.476562 3.445312 L 56.335938 4.941406 L 56.953125 5.835938 L 59.097656 4.347656 " fill-opacity="1" fill-rule="nonzero"/><path fill="#dfc13d" d="M 43.011719 24.351562 L 43.277344 24.75 L 58.53125 14.09375 L 58.253906 13.695312 L 43.011719 24.351562 " fill-opacity="1" fill-rule="nonzero"/><path fill="#dfc13d" d="M 60.332031 11.839844 C 60.246094 11.722656 60.085938 11.691406 59.960938 11.777344 C 59.84375 11.863281 59.808594 12.035156 59.894531 12.152344 L 60.214844 12.628906 C 60.300781 12.746094 60.472656 12.777344 60.589844 12.691406 C 60.714844 12.605469 60.738281 12.445312 60.664062 12.316406 L 60.332031 11.839844 " fill-opacity="1" fill-rule="nonzero"/><path fill="#dfc13d" d="M 62.835938 9.808594 L 60.695312 11.304688 L 61.003906 11.753906 L 63.148438 10.257812 L 62.835938 9.808594 " fill-opacity="1" fill-rule="nonzero"/><path fill="#dfc13d" d="M 61.25 7.492188 L 59.105469 8.988281 L 59.726562 9.882812 L 61.855469 8.386719 L 61.25 7.492188 " fill-opacity="1" fill-rule="nonzero"/><path fill="#dfc13d" d="M 61.207031 12.058594 L 61.515625 12.5 L 63.65625 11.003906 L 63.347656 10.5625 L 61.207031 12.058594 " fill-opacity="1" fill-rule="nonzero"/><g clip-path="url(#8907f3fd74)"><path fill="#dfc13d" d="M 64.554688 12.175781 L 61.855469 14.058594 L 61.367188 13.347656 C 61.28125 13.230469 61.121094 13.199219 60.992188 13.285156 C 60.875 13.371094 60.84375 13.542969 60.929688 13.660156 L 61.417969 14.371094 L 43.578125 26.839844 C 43.277344 27.042969 42.875 26.96875 42.671875 26.667969 L 36.5625 17.761719 C 36.359375 17.460938 36.4375 17.042969 36.734375 16.835938 L 54.566406 4.382812 L 55.054688 5.09375 C 55.140625 5.210938 55.300781 5.242188 55.429688 5.15625 C 55.546875 5.070312 55.578125 4.898438 55.492188 4.78125 L 55.003906 4.070312 L 57.699219 2.183594 C 58 1.980469 58.414062 2.054688 58.617188 2.359375 L 64.714844 11.261719 C 64.914062 11.5625 64.839844 11.972656 64.554688 12.175781 Z M 66.578125 9.859375 L 65.875 8.839844 L 65.300781 9.226562 C 65.042969 9.417969 64.679688 9.34375 64.5 9.085938 C 64.320312 8.816406 64.382812 8.449219 64.640625 8.269531 L 65.214844 7.871094 L 64.5625 6.910156 L 63.988281 7.308594 C 63.734375 7.492188 63.359375 7.429688 63.179688 7.167969 C 62.996094 6.902344 63.070312 6.535156 63.328125 6.351562 L 63.902344 5.953125 L 63.242188 4.996094 L 62.675781 5.394531 C 62.410156 5.578125 62.046875 5.511719 61.867188 5.242188 C 61.6875 4.984375 61.75 4.617188 62.015625 4.433594 L 62.582031 4.035156 L 61.929688 3.078125 L 61.367188 3.476562 C 61.101562 3.660156 60.738281 3.59375 60.554688 3.328125 C 60.375 3.066406 60.4375 2.703125 60.707031 2.519531 L 61.269531 2.121094 L 60.566406 1.085938 C 59.851562 1.582031 58.871094 1.410156 58.382812 0.6875 L 35.101562 16.957031 C 35.59375 17.664062 35.414062 18.667969 34.710938 19.164062 L 35.414062 20.183594 L 35.976562 19.785156 C 36.242188 19.605469 36.605469 19.667969 36.789062 19.9375 C 36.96875 20.207031 36.90625 20.574219 36.636719 20.757812 L 36.074219 21.152344 L 36.722656 22.101562 L 37.289062 21.703125 C 37.554688 21.519531 37.917969 21.59375 38.097656 21.855469 C 38.28125 22.121094 38.214844 22.488281 37.949219 22.671875 L 37.382812 23.070312 L 38.035156 24.027344 L 38.609375 23.628906 C 38.867188 23.445312 39.226562 23.511719 39.410156 23.769531 C 39.589844 24.039062 39.527344 24.40625 39.261719 24.589844 L 38.695312 24.988281 L 39.34375 25.945312 L 39.921875 25.546875 C 40.175781 25.363281 40.539062 25.429688 40.730469 25.6875 C 40.914062 25.957031 40.835938 26.320312 40.582031 26.503906 L 40.007812 26.902344 L 40.710938 27.9375 C 41.425781 27.429688 42.40625 27.613281 42.894531 28.335938 L 66.171875 12.066406 C 65.683594 11.347656 65.863281 10.355469 66.578125 9.859375 " fill-opacity="1" fill-rule="nonzero"/></g><path fill="#dfc13d" d="M 43.980469 22.210938 L 41.710938 18.894531 L 42.511719 18.332031 L 41.96875 17.535156 L 39.515625 19.25 L 40.058594 20.046875 L 40.859375 19.484375 L 43.140625 22.8125 L 43.980469 22.210938 " fill-opacity="1" fill-rule="nonzero"/><path fill="#dfc13d" d="M 53.808594 7.203125 L 38.566406 17.859375 L 38.832031 18.257812 L 54.085938 7.601562 L 53.808594 7.203125 " fill-opacity="1" fill-rule="nonzero"/><path fill="#dfc13d" d="M 58.265625 8.828125 C 58.191406 8.710938 58.019531 8.675781 57.902344 8.761719 C 57.773438 8.847656 57.742188 9.011719 57.828125 9.140625 C 57.933594 9.289062 58.042969 9.453125 58.160156 9.613281 C 58.234375 9.730469 58.402344 9.765625 58.519531 9.679688 C 58.648438 9.59375 58.679688 9.429688 58.59375 9.300781 C 58.488281 9.152344 58.371094 8.988281 58.265625 8.828125 " fill-opacity="1" fill-rule="nonzero"/><path fill="#dfc13d" d="M 60.578125 6.511719 L 58.433594 8.007812 L 58.746094 8.460938 L 60.886719 6.964844 L 60.578125 6.511719 " fill-opacity="1" fill-rule="nonzero"/><path fill="#dfc13d" d="M 59.296875 10.335938 C 59.214844 10.214844 59.054688 10.183594 58.925781 10.269531 C 58.808594 10.355469 58.777344 10.519531 58.863281 10.648438 C 58.96875 10.796875 59.074219 10.960938 59.191406 11.121094 C 59.265625 11.238281 59.4375 11.269531 59.554688 11.183594 C 59.683594 11.097656 59.714844 10.9375 59.628906 10.808594 C 59.523438 10.65625 59.40625 10.496094 59.296875 10.335938 " fill-opacity="1" fill-rule="nonzero"/></svg>